# xmcd
# 
# Track frame offsets:
#     150
#     7947
#     24812
#     42430
#     62912
#     80472
#     96910
#     129165
#     146130
#     155880
#     179780
#     201177
#     225107
#     249357
#     268512
#     292605
#     310975
# 
# Disc length: 4558
# 
# Revision: 4
# Processed by: cddbd v1.5.2PL0 Copyright (c) Steve Scherf et al.
# Submitted via: fre:ac v1.0.27
# 
DISCID=df11cc11
DTITLE=Bilal - 1st Born Second
DYEAR=2001
DGENRE=R&B
TTITLE0=Intro
TTITLE1=For You
TTITLE2=Fast Lane
TTITLE3=Reminisce avec Mos Def et Common
TTITLE4=All That I Am (something for the people)
TTITLE5=Sally
TTITLE6=Sometimes
TTITLE7=Love
TTITLE8=C'mere [skit]
TTITLE9=Soul Sista
TTITLE10=When Will You Call
TTITLE11=Queen Of Sanity
TTITLE12=Love Poems
TTITLE13=You Are
TTITLE14=Home
TTITLE15=Slyde
TTITLE16=Second Child
EXTD=
EXTT0=
EXTT1=
EXTT2=
EXTT3=
EXTT4=
EXTT5=
EXTT6=
EXTT7=
EXTT8=
EXTT9=
EXTT10=
EXTT11=
EXTT12=
EXTT13=
EXTT14=
EXTT15=
EXTT16=
PLAYORDER=
